<svg width="913" height="49" viewBox="0 0 913 49" fill="none" xmlns="http://www.w3.org/2000/svg">
<path d="M35.95 5.3L35.7 13.55C35.7 18.0833 35.8333 22.15 36.1 25.75C36.3667 29.3167 36.9667 33.2 37.9 37.4C37.1667 38 36 38.3 34.4 38.3C31.3 38.3 29.75 36.95 29.75 34.25C29.75 32.0167 29.85 28.6 30.05 24C30.2833 19.4 30.4 15.8 30.4 13.2C28.6 15.8 26.7 19.0167 24.7 22.85C22.7333 26.65 21.75 28.9833 21.75 29.85C21.75 30.7167 21.8333 31.3833 22 31.85C21.2667 32.3167 20.2833 32.55 19.05 32.55C17.85 32.55 16.8333 32.2167 16 31.55C15.2 30.8833 14.5167 29.9667 13.95 28.8C13.4167 27.6333 12.45 25.35 11.05 21.95C9.68333 18.5167 8.43333 15.5667 7.3 13.1C6.43333 18.4667 6 23.2167 6 27.35C6 31.4833 6.13333 34.8333 6.4 37.4C5.33333 37.8 4.26667 38 3.2 38C1.06667 38 1.19209e-07 36.9333 1.19209e-07 34.8C1.19209e-07 33.1667 0.366667 29.9167 1.1 25.05C1.86667 20.15 2.25 16.0167 2.25 12.65C2.25 9.28333 2.06667 6.13333 1.7 3.2C3.5 2.73333 4.9 2.5 5.9 2.5C7.73333 2.5 8.96667 3.15 9.6 4.45C10.6 6.55 12.0667 9.9 14 14.5C15.9667 19.0667 17.5667 22.5833 18.8 25.05C19.1333 24.35 19.9 22.85 21.1 20.55C22.3333 18.2167 23.35 16.2333 24.15 14.6C24.9833 12.9333 25.8167 10.9667 26.65 8.7C27.5167 6.4 28.0667 4.4 28.3 2.7C29.5 2.36667 30.6667 2.2 31.8 2.2C32.9667 2.2 33.95 2.45 34.75 2.95C35.55 3.45 35.95 4.23333 35.95 5.3ZM42.9152 13.15C43.9819 12.85 45.0486 12.7 46.1152 12.7C47.2152 12.7 48.1486 13.0333 48.9152 13.7C49.6819 14.3667 50.0652 15.2333 50.0652 16.3C50.0652 17.3333 49.8819 19.15 49.5152 21.75C49.1819 24.3167 49.0152 26.3167 49.0152 27.75C49.0152 31.4833 49.3652 34.7 50.0652 37.4C49.0319 37.8 47.9152 38 46.7152 38C45.5152 38 44.5652 37.7333 43.8652 37.2C43.1652 36.6333 42.8152 35.8333 42.8152 34.8C42.8152 33.7333 43.0152 32 43.4152 29.6C43.8152 27.2 44.0152 25.2167 44.0152 23.65C44.0152 19.4833 43.6486 15.9833 42.9152 13.15ZM43.5652 1.85C44.7319 1.31667 45.8819 1.05 47.0152 1.05C48.1486 1.05 48.9819 1.35 49.5152 1.95C50.0819 2.51666 50.3652 3.36666 50.3652 4.5C50.3652 5.63333 49.9819 6.63333 49.2152 7.5C48.4819 8.36666 47.5152 8.8 46.3152 8.8C43.8486 8.8 42.6152 7.51666 42.6152 4.95C42.6152 3.81666 42.9319 2.78333 43.5652 1.85ZM78.7594 17.8L78.2594 28.8C78.2594 31.8333 78.726 34.8 79.6594 37.7C78.726 38.1 77.6594 38.3 76.4594 38.3C73.626 38.3 72.2094 36.7167 72.2094 33.55C72.2094 32.1167 72.3927 29.7167 72.7594 26.35C73.126 22.95 73.3094 20.8167 73.3094 19.95C73.3094 18.2833 72.5594 17.45 71.0594 17.45C69.9594 17.45 68.7094 18.25 67.3094 19.85C65.9427 21.4167 64.7594 23.1833 63.7594 25.15C62.7927 27.0833 62.226 28.6833 62.0594 29.95C62.1927 32.55 62.526 35.0333 63.0594 37.4C61.9927 37.8 60.876 38 59.7094 38C58.576 38 57.6427 37.7333 56.9094 37.2C56.2094 36.6333 55.8594 35.8667 55.8594 34.9C55.8594 33.9 56.0094 32.1333 56.3094 29.6C56.6094 27.0333 56.7594 24.5 56.7594 22C56.7594 19.4667 56.376 16.5667 55.6094 13.3C56.676 12.9 57.8094 12.7 59.0094 12.7C60.2094 12.7 61.176 13.05 61.9094 13.75C62.676 14.45 63.0594 15.3167 63.0594 16.35C63.0594 17.3833 62.926 19.0333 62.6594 21.3C63.926 18.9333 65.576 16.8667 67.6094 15.1C69.6427 13.3 71.676 12.4 73.7094 12.4C77.076 12.4 78.7594 14.2 78.7594 17.8ZM100.606 1.1C101.673 0.699997 102.773 0.499997 103.906 0.499997C105.04 0.499997 105.973 0.88333 106.706 1.65C107.44 2.38333 107.806 3.31667 107.806 4.45C107.806 5.55 107.64 8.18333 107.306 12.35C106.973 16.4833 106.806 20.5667 106.806 24.6C106.806 28.6 107.206 32.8667 108.006 37.4C106.806 37.8 105.556 38 104.256 38C102.056 38 100.956 36.45 100.956 33.35C100.956 32.3167 101.173 30.4667 101.606 27.8C100.206 30.7667 98.9563 32.9667 97.8563 34.4C96.7896 35.8333 95.7396 36.85 94.7063 37.45C93.7063 38.0167 92.6396 38.3 91.5063 38.3C88.9729 38.3 87.0229 37.3667 85.6563 35.5C84.3229 33.6333 83.6563 31.3333 83.6563 28.6C83.6563 25.8667 84.1396 23.3 85.1063 20.9C86.1063 18.4667 87.5896 16.45 89.5563 14.85C91.5563 13.2167 93.6729 12.4 95.9063 12.4C98.1396 12.4 100.073 12.7 101.706 13.3C101.64 9 101.273 4.93333 100.606 1.1ZM101.706 17.55C100.073 16.95 98.3063 16.65 96.4063 16.65C94.5063 16.65 92.8729 17.2 91.5063 18.3C90.3729 21 89.8063 24.0167 89.8063 27.35C89.8063 28.8833 90.0229 30.35 90.4563 31.75C90.8896 33.15 91.6063 33.85 92.6063 33.85C94.1396 33.85 95.8729 32.1333 97.8063 28.7C99.7729 25.2667 101.073 21.55 101.706 17.55ZM115.237 29.85C115.237 29.25 115.087 25.35 114.787 18.15C113.154 18.25 111.854 18.5333 110.887 19C110.487 18.2667 110.287 17.5 110.287 16.7C110.287 15.9 110.57 15.25 111.137 14.75C111.704 14.2167 112.37 13.95 113.137 13.95C113.904 13.95 114.454 13.9667 114.787 14C114.954 10.2333 116.237 7.05 118.637 4.45C121.037 1.81666 124.054 0.499997 127.687 0.499997C129.72 0.499997 131.437 0.933331 132.837 1.8C134.237 2.66667 134.937 3.95 134.937 5.65C134.937 6.85 134.487 7.86667 133.587 8.7C132.687 9.53333 131.62 9.95 130.387 9.95C130.12 9.95 129.787 9.91666 129.387 9.85C129.487 9.41667 129.537 9.03333 129.537 8.7C129.537 7.53333 129.287 6.6 128.787 5.9C128.287 5.16667 127.404 4.8 126.137 4.8C124.87 4.8 123.704 5.16667 122.637 5.9C121.97 6.8 121.437 8.05 121.037 9.65C120.637 11.25 120.437 12.8167 120.437 14.35H121.587C123.787 14.35 126.404 14 129.437 13.3C129.837 13.9667 130.037 14.7667 130.037 15.7C130.037 16.6 129.654 17.35 128.887 17.95C128.12 18.55 127.154 18.85 125.987 18.85C125.954 18.85 124.07 18.6167 120.337 18.15L120.837 44.15C120.837 46.3167 119.554 47.4 116.987 47.4C116.12 47.4 114.987 47.2 113.587 46.8C114.687 42.4333 115.237 36.7833 115.237 29.85ZM132.572 32.9L133.072 22.5C133.072 19.2667 132.605 16.2 131.672 13.3C132.605 12.9 133.755 12.7 135.122 12.7C137.789 12.7 139.122 14.1833 139.122 17.15C139.122 18.8167 138.939 21.1667 138.572 24.2C138.205 27.2 138.022 29.3833 138.022 30.75C138.022 32.4167 138.772 33.25 140.272 33.25C141.172 33.25 142.222 32.5 143.422 31C144.655 29.4667 145.705 27.7667 146.572 25.9C147.472 24 148.005 22.45 148.172 21.25C147.972 17.5833 147.689 14.9333 147.322 13.3C148.389 12.9 149.472 12.7 150.572 12.7C151.705 12.7 152.639 13.05 153.372 13.75C154.139 14.45 154.522 15.3167 154.522 16.35C154.522 17.3833 154.372 19.1 154.072 21.5C153.772 23.9 153.622 26.4167 153.622 29.05C153.622 31.65 153.922 34.4333 154.522 37.4C153.222 37.8 152.055 38 151.022 38C148.955 38 147.922 36.6333 147.922 33.9C147.922 32.7 148.055 31.0333 148.322 28.9C146.989 31.7333 145.355 34.0167 143.422 35.75C141.522 37.45 139.589 38.3 137.622 38.3C134.255 38.3 132.572 36.5 132.572 32.9ZM160.16 1.1C161.226 0.699997 162.326 0.499997 163.46 0.499997C164.593 0.499997 165.526 0.88333 166.26 1.65C167.026 2.38333 167.41 3.4 167.41 4.7C167.41 5.96667 167.226 8.53333 166.86 12.4C166.526 16.2333 166.36 19.25 166.36 21.45C166.36 26.8833 166.743 32.2 167.51 37.4C166.443 37.8 165.31 38 164.11 38C161.543 38 160.26 36.75 160.26 34.25C160.26 33.05 160.443 30.7 160.81 27.2C161.176 23.6667 161.36 20.8333 161.36 18.7C161.36 11.6 160.96 5.73333 160.16 1.1ZM223.499 5.3L223.249 13.55C223.249 18.0833 223.382 22.15 223.649 25.75C223.915 29.3167 224.515 33.2 225.449 37.4C224.715 38 223.549 38.3 221.949 38.3C218.849 38.3 217.299 36.95 217.299 34.25C217.299 32.0167 217.399 28.6 217.599 24C217.832 19.4 217.949 15.8 217.949 13.2C216.149 15.8 214.249 19.0167 212.249 22.85C210.282 26.65 209.299 28.9833 209.299 29.85C209.299 30.7167 209.382 31.3833 209.549 31.85C208.815 32.3167 207.832 32.55 206.599 32.55C205.399 32.55 204.382 32.2167 203.549 31.55C202.749 30.8833 202.065 29.9667 201.499 28.8C200.965 27.6333 199.999 25.35 198.599 21.95C197.232 18.5167 195.982 15.5667 194.849 13.1C193.982 18.4667 193.549 23.2167 193.549 27.35C193.549 31.4833 193.682 34.8333 193.949 37.4C192.882 37.8 191.815 38 190.749 38C188.615 38 187.549 36.9333 187.549 34.8C187.549 33.1667 187.915 29.9167 188.649 25.05C189.415 20.15 189.799 16.0167 189.799 12.65C189.799 9.28333 189.615 6.13333 189.249 3.2C191.049 2.73333 192.449 2.5 193.449 2.5C195.282 2.5 196.515 3.15 197.149 4.45C198.149 6.55 199.615 9.9 201.549 14.5C203.515 19.0667 205.115 22.5833 206.349 25.05C206.682 24.35 207.449 22.85 208.649 20.55C209.882 18.2167 210.899 16.2333 211.699 14.6C212.532 12.9333 213.365 10.9667 214.199 8.7C215.065 6.4 215.615 4.4 215.849 2.7C217.049 2.36667 218.215 2.2 219.349 2.2C220.515 2.2 221.499 2.45 222.299 2.95C223.099 3.45 223.499 4.23333 223.499 5.3ZM254.164 19.8C254.164 15.8333 253.347 12.6333 251.714 10.2C250.114 7.73333 247.597 6.5 244.164 6.5C242.097 6.5 240.264 7.16666 238.664 8.5C237.764 9.9 237.047 11.7833 236.514 14.15C236.014 16.5167 235.764 18.7667 235.764 20.9C235.764 24.8333 236.564 27.9833 238.164 30.35C239.764 32.7167 242.297 33.9 245.764 33.9C247.664 33.9 249.281 33.1333 250.614 31.6C252.981 28.8333 254.164 24.9 254.164 19.8ZM244.064 38.6C239.197 38.6 235.497 37 232.964 33.8C230.431 30.5667 229.164 26.35 229.164 21.15C229.164 15.9167 230.731 11.4 233.864 7.6C236.997 3.8 240.981 1.9 245.814 1.9C250.681 1.9 254.381 3.53333 256.914 6.8C259.481 10.0667 260.764 14.3167 260.764 19.55C260.764 24.7833 259.197 29.2667 256.064 33C252.931 36.7333 248.931 38.6 244.064 38.6ZM265.851 2.35L276.401 2.5C281.867 2.5 285.867 2.3 288.401 1.9C288.767 2.6 288.951 3.4 288.951 4.3C288.951 5.2 288.551 6.01667 287.751 6.75C286.951 7.45 285.984 7.8 284.851 7.8L279.101 7.15C279.101 7.38333 279.017 8.41667 278.851 10.25C278.384 14.75 278.151 19.2667 278.151 23.8C278.151 28.3333 278.501 32.8667 279.201 37.4C278.101 37.8 276.951 38 275.751 38C274.551 38 273.517 37.6667 272.651 37C271.784 36.3 271.351 35.2667 271.351 33.9C271.351 32.5 271.517 30.05 271.851 26.55C272.184 23.05 272.351 19.65 272.351 16.35C272.351 13.0167 272.184 9.91666 271.851 7.05C267.817 7.25 264.667 7.81666 262.401 8.75C262.001 7.98333 261.801 7.13333 261.801 6.2C261.801 5.23333 262.184 4.35 262.951 3.55C263.717 2.75 264.684 2.35 265.851 2.35ZM300.039 37.4C298.972 37.8 297.839 38 296.639 38C295.439 38 294.389 37.6167 293.489 36.85C292.622 36.0833 292.189 35.0333 292.189 33.7C292.189 32.3667 292.355 29.8167 292.689 26.05C293.022 22.25 293.189 19.2167 293.189 16.95C293.189 11.1167 292.839 6.5 292.139 3.1C293.205 2.7 294.339 2.5 295.539 2.5C296.739 2.5 297.772 2.88333 298.639 3.65C299.539 4.41666 299.989 5.46667 299.989 6.8C299.989 8.13333 299.822 10.7 299.489 14.5C299.155 18.2667 298.989 21.2833 298.989 23.55C298.989 29.3833 299.339 34 300.039 37.4ZM322.855 37.6C321.455 38.0667 320.188 38.3 319.055 38.3C317.355 38.3 316.021 37.6833 315.055 36.45C314.121 35.1833 313.355 33.4 312.755 31.1C312.621 30.6 312.155 28.7667 311.355 25.6C309.788 19.4 308.521 14.9167 307.555 12.15C306.588 9.35 305.171 7.23333 303.305 5.8C303.705 4.8 304.355 4 305.255 3.4C306.188 2.8 307.271 2.5 308.505 2.5C309.738 2.5 310.755 2.98333 311.555 3.95C312.355 4.88333 312.988 6.03333 313.455 7.4C313.955 8.76666 314.388 10.0833 314.755 11.35C315.121 12.6167 315.505 14.1833 315.905 16.05C316.338 17.9167 316.671 19.4333 316.905 20.6C317.171 21.7333 317.571 23.7 318.105 26.5C318.671 29.2667 319.088 31.2833 319.355 32.55C324.955 17.95 327.755 8.2 327.755 3.3C327.755 2.86667 327.738 2.55 327.705 2.35C328.205 2.25 328.721 2.2 329.255 2.2C330.588 2.2 331.671 2.53333 332.505 3.2C333.371 3.83333 333.805 4.75 333.805 5.95C333.805 7.61667 332.155 12.55 328.855 20.75C325.588 28.9167 323.588 34.5333 322.855 37.6ZM343.503 2.9C344.903 2.43333 346.169 2.2 347.303 2.2C349.036 2.2 350.386 2.81667 351.353 4.05C352.319 5.25 353.069 6.96667 353.603 9.2C353.769 9.86666 354.103 11.3333 354.603 13.6C355.136 15.8667 355.569 17.7 355.903 19.1C356.936 23.4667 357.869 26.85 358.703 29.25C359.569 31.65 360.936 33.5667 362.803 35C362.403 36 361.736 36.8 360.803 37.4C359.903 38 358.919 38.3 357.853 38.3C355.419 38.3 353.636 36.4667 352.503 32.8C351.969 31.1 351.486 29.4333 351.053 27.8C349.886 28.2 348.436 28.4 346.703 28.4C345.003 28.4 342.903 28.2167 340.403 27.85C339.369 31.8833 338.853 34.9167 338.853 36.95C338.853 37.3833 338.869 37.7 338.903 37.9C338.469 37.9667 337.736 38 336.703 38C335.669 38 334.753 37.6833 333.953 37.05C333.186 36.3833 332.803 35.45 332.803 34.25C332.803 32.5833 334.403 27.7 337.603 19.6C340.803 11.5 342.769 5.93333 343.503 2.9ZM341.553 23.65C342.886 23.8167 344.236 23.9 345.603 23.9C347.003 23.9 348.486 23.75 350.053 23.45C349.753 22.0833 348.736 16.85 347.003 7.75C344.936 13.1167 343.119 18.4167 341.553 23.65ZM363.116 2.35L373.666 2.5C379.133 2.5 383.133 2.3 385.666 1.9C386.033 2.6 386.216 3.4 386.216 4.3C386.216 5.2 385.816 6.01667 385.016 6.75C384.216 7.45 383.25 7.8 382.116 7.8L376.366 7.15C376.366 7.38333 376.283 8.41667 376.116 10.25C375.65 14.75 375.416 19.2667 375.416 23.8C375.416 28.3333 375.766 32.8667 376.466 37.4C375.366 37.8 374.216 38 373.016 38C371.816 38 370.783 37.6667 369.916 37C369.05 36.3 368.616 35.2667 368.616 33.9C368.616 32.5 368.783 30.05 369.116 26.55C369.45 23.05 369.616 19.65 369.616 16.35C369.616 13.0167 369.45 9.91666 369.116 7.05C365.083 7.25 361.933 7.81666 359.666 8.75C359.266 7.98333 359.066 7.13333 359.066 6.2C359.066 5.23333 359.45 4.35 360.216 3.55C360.983 2.75 361.95 2.35 363.116 2.35ZM397.304 37.4C396.238 37.8 395.104 38 393.904 38C392.704 38 391.654 37.6167 390.754 36.85C389.888 36.0833 389.454 35.0333 389.454 33.7C389.454 32.3667 389.621 29.8167 389.954 26.05C390.288 22.25 390.454 19.2167 390.454 16.95C390.454 11.1167 390.104 6.5 389.404 3.1C390.471 2.7 391.604 2.5 392.804 2.5C394.004 2.5 395.038 2.88333 395.904 3.65C396.804 4.41666 397.254 5.46667 397.254 6.8C397.254 8.13333 397.088 10.7 396.754 14.5C396.421 18.2667 396.254 21.2833 396.254 23.55C396.254 29.3833 396.604 34 397.304 37.4ZM426.82 19.8C426.82 15.8333 426.004 12.6333 424.37 10.2C422.77 7.73333 420.254 6.5 416.82 6.5C414.754 6.5 412.92 7.16666 411.32 8.5C410.42 9.9 409.704 11.7833 409.17 14.15C408.67 16.5167 408.42 18.7667 408.42 20.9C408.42 24.8333 409.22 27.9833 410.82 30.35C412.42 32.7167 414.954 33.9 418.42 33.9C420.32 33.9 421.937 33.1333 423.27 31.6C425.637 28.8333 426.82 24.9 426.82 19.8ZM416.72 38.6C411.854 38.6 408.154 37 405.62 33.8C403.087 30.5667 401.82 26.35 401.82 21.15C401.82 15.9167 403.387 11.4 406.52 7.6C409.654 3.8 413.637 1.9 418.47 1.9C423.337 1.9 427.037 3.53333 429.57 6.8C432.137 10.0667 433.42 14.3167 433.42 19.55C433.42 24.7833 431.854 29.2667 428.72 33C425.587 36.7333 421.587 38.6 416.72 38.6ZM458.639 3C459.706 2.46667 460.823 2.2 461.989 2.2C463.189 2.2 464.156 2.56667 464.889 3.3C465.656 4.03333 466.039 4.91666 466.039 5.95C466.039 6.98333 465.889 9.26667 465.589 12.8C465.289 16.3 465.139 19.0833 465.139 21.15C465.139 27.7833 465.439 33.3 466.039 37.7C464.973 38.1 463.773 38.3 462.439 38.3C461.139 38.3 460.123 38.0833 459.389 37.65C457.256 36.4167 452.273 28.6167 444.439 14.25C444.306 15.55 444.239 18.6 444.239 23.4C444.239 28.1667 444.606 32.8333 445.339 37.4C444.306 37.8 443.189 38 441.989 38C440.789 38 439.806 37.6167 439.039 36.85C438.306 36.0833 437.939 35.1667 437.939 34.1C437.939 33.0333 438.089 30.8 438.389 27.4C438.723 24 438.889 21.4333 438.889 19.7C438.889 13.0667 438.573 7.56667 437.939 3.2C438.873 2.73333 440.239 2.5 442.039 2.5C443.839 2.5 445.106 3.21666 445.839 4.65C450.773 14.6833 455.489 23.1833 459.989 30.15C459.889 23.75 459.839 20.3667 459.839 20C459.839 13.7667 459.439 8.1 458.639 3ZM479.44 2.9C480.84 2.43333 482.107 2.2 483.24 2.2C484.974 2.2 486.324 2.81667 487.29 4.05C488.257 5.25 489.007 6.96667 489.54 9.2C489.707 9.86666 490.04 11.3333 490.54 13.6C491.074 15.8667 491.507 17.7 491.84 19.1C492.874 23.4667 493.807 26.85 494.64 29.25C495.507 31.65 496.874 33.5667 498.74 35C498.34 36 497.674 36.8 496.74 37.4C495.84 38 494.857 38.3 493.79 38.3C491.357 38.3 489.574 36.4667 488.44 32.8C487.907 31.1 487.424 29.4333 486.99 27.8C485.824 28.2 484.374 28.4 482.64 28.4C480.94 28.4 478.84 28.2167 476.34 27.85C475.307 31.8833 474.79 34.9167 474.79 36.95C474.79 37.3833 474.807 37.7 474.84 37.9C474.407 37.9667 473.674 38 472.64 38C471.607 38 470.69 37.6833 469.89 37.05C469.124 36.3833 468.74 35.45 468.74 34.25C468.74 32.5833 470.34 27.7 473.54 19.6C476.74 11.5 478.707 5.93333 479.44 2.9ZM477.49 23.65C478.824 23.8167 480.174 23.9 481.54 23.9C482.94 23.9 484.424 23.75 485.99 23.45C485.69 22.0833 484.674 16.85 482.94 7.75C480.874 13.1167 479.057 18.4167 477.49 23.65ZM502.002 3.1C503.069 2.7 504.219 2.5 505.452 2.5C508.419 2.5 509.902 3.85 509.902 6.55C509.902 8.01667 509.735 10.4333 509.402 13.8C509.069 17.1333 508.902 20.6 508.902 24.2C508.902 27.8 509.019 30.7833 509.252 33.15C510.152 33.25 511.052 33.3 511.952 33.3C516.352 33.3 520.219 32.5667 523.552 31.1C523.952 32 524.152 33.0167 524.152 34.15C524.152 35.2833 523.752 36.2667 522.952 37.1C522.185 37.9 521.235 38.3 520.102 38.3C517.735 38.3 512.552 38.1 504.552 37.7C503.919 37.6667 503.369 37.4833 502.902 37.15C502.435 36.7833 502.202 36.3333 502.202 35.8C502.202 34.0333 502.335 31.05 502.602 26.85C502.902 22.65 503.052 18.7833 503.052 15.25C503.052 11.6833 502.702 7.63333 502.002 3.1ZM568.047 6.8C570.614 10.0333 571.897 14.15 571.897 19.15C571.897 24.15 570.614 28.3167 568.047 31.65C565.514 34.9833 562.33 37.0833 558.497 37.95C558.83 38.15 559.547 38.5667 560.647 39.2C561.78 39.8333 562.497 40.2333 562.797 40.4C563.13 40.6 563.747 40.9167 564.647 41.35C565.547 41.8167 566.23 42.1167 566.697 42.25C567.164 42.3833 567.797 42.5667 568.597 42.8C569.797 43.2 571.33 43.4 573.197 43.4C573.197 44.9333 572.83 46.2 572.097 47.2C571.364 48.2 570.314 48.7 568.947 48.7C567.58 48.7 566.247 48.4 564.947 47.8C563.647 47.2 562.58 46.5333 561.747 45.8C560.914 45.1 559.78 44.0833 558.347 42.75C556.947 41.4167 555.814 40.4167 554.947 39.75C554.114 39.0833 552.497 38.3333 550.097 37.5C547.33 36.6 544.997 34.7833 543.097 32.05C541.23 29.3167 540.297 25.7167 540.297 21.25C540.297 15.8833 541.864 11.3167 544.997 7.55C548.13 3.78333 552.114 1.9 556.947 1.9C561.814 1.9 565.514 3.53333 568.047 6.8ZM556.897 33.55C558.797 33.55 560.414 32.8 561.747 31.3C564.114 28.6 565.297 24.7167 565.297 19.65C565.297 15.6833 564.48 12.5 562.847 10.1C561.247 7.7 558.73 6.5 555.297 6.5C553.264 6.5 551.43 7.15 549.797 8.45C548.897 9.88333 548.18 11.75 547.647 14.05C547.147 16.35 546.897 18.5833 546.897 20.75C546.897 24.6833 547.697 27.8 549.297 30.1C550.897 32.4 553.43 33.55 556.897 33.55ZM576.566 32.9L577.066 22.5C577.066 19.2667 576.599 16.2 575.666 13.3C576.599 12.9 577.749 12.7 579.116 12.7C581.783 12.7 583.116 14.1833 583.116 17.15C583.116 18.8167 582.933 21.1667 582.566 24.2C582.199 27.2 582.016 29.3833 582.016 30.75C582.016 32.4167 582.766 33.25 584.266 33.25C585.166 33.25 586.216 32.5 587.416 31C588.649 29.4667 589.699 27.7667 590.566 25.9C591.466 24 591.999 22.45 592.166 21.25C591.966 17.5833 591.683 14.9333 591.316 13.3C592.383 12.9 593.466 12.7 594.566 12.7C595.699 12.7 596.633 13.05 597.366 13.75C598.133 14.45 598.516 15.3167 598.516 16.35C598.516 17.3833 598.366 19.1 598.066 21.5C597.766 23.9 597.616 26.4167 597.616 29.05C597.616 31.65 597.916 34.4333 598.516 37.4C597.216 37.8 596.049 38 595.016 38C592.949 38 591.916 36.6333 591.916 33.9C591.916 32.7 592.049 31.0333 592.316 28.9C590.983 31.7333 589.349 34.0167 587.416 35.75C585.516 37.45 583.583 38.3 581.616 38.3C578.249 38.3 576.566 36.5 576.566 32.9ZM612.704 38.6C609.037 38.6 606.337 37.5333 604.604 35.4C602.871 33.2333 602.004 30.2333 602.004 26.4C602.004 22.5333 603.154 19.1833 605.454 16.35C607.754 13.5167 610.704 12.1 614.304 12.1C621.704 12.1 625.404 16.2667 625.404 24.6C625.404 28.5 624.204 31.8167 621.804 34.55C619.404 37.25 616.371 38.6 612.704 38.6ZM609.104 17.6C608.504 19.5333 608.204 21.4667 608.204 23.4C608.204 25.3333 608.271 26.8333 608.404 27.9C608.537 28.9667 608.787 30.0333 609.154 31.1C609.921 33.2667 611.421 34.35 613.654 34.35C615.921 34.35 617.404 33.75 618.104 32.55C618.837 31.35 619.204 29.5 619.204 27C619.204 19.9 617.521 16.35 614.154 16.35C612.221 16.35 610.537 16.7667 609.104 17.6ZM631.286 5.35C632.353 4.81666 633.436 4.55 634.536 4.55C635.636 4.55 636.52 4.9 637.186 5.6C637.886 6.3 638.236 7.33333 638.236 8.7C638.236 10.0667 638.153 11.6167 637.986 13.35C640.486 13.35 642.87 13 645.136 12.3C645.536 12.9667 645.736 13.75 645.736 14.65C645.736 15.5167 645.336 16.2333 644.536 16.8C643.77 17.3333 642.986 17.6 642.186 17.6C641.386 17.6 640.486 17.5 639.486 17.3C638.486 17.1 637.836 16.9833 637.536 16.95C637.503 17.25 637.403 17.85 637.236 18.75C637.103 19.65 636.986 20.4333 636.886 21.1C636.62 22.9333 636.486 24.9 636.486 27C636.486 31.5667 637.97 33.85 640.936 33.85C642.036 33.85 643.303 33.4667 644.736 32.7C645.17 33.3333 645.386 34.15 645.386 35.15C645.386 36.15 644.836 36.9333 643.736 37.5C642.67 38.0333 641.386 38.3 639.886 38.3C634.02 38.3 631.086 34.9667 631.086 28.3C631.086 27.3333 631.22 25.5833 631.486 23.05C631.786 20.5167 631.936 18.4667 631.936 16.9C630.336 17 629.053 17.2833 628.086 17.75C627.686 17.15 627.486 16.4667 627.486 15.7C627.486 14.9 627.77 14.25 628.336 13.75C628.903 13.2167 629.603 12.95 630.436 12.95C631.27 12.95 631.82 12.9667 632.086 13C632.12 12.7333 632.136 12.3833 632.136 11.95C632.136 9.45 631.853 7.25 631.286 5.35ZM653.563 26.65C653.563 29.05 653.946 30.95 654.713 32.35C655.48 33.7167 656.763 34.4 658.563 34.4C660.363 34.4 661.763 33.8 662.763 32.6C663.796 31.3667 664.313 29.8833 664.313 28.15C665.446 28.15 666.43 28.4333 667.263 29C668.096 29.5667 668.513 30.35 668.513 31.35C668.513 33.4167 667.413 35.15 665.213 36.55C663.013 37.9167 660.696 38.6 658.263 38.6C654.463 38.6 651.713 37.5833 650.013 35.55C648.313 33.4833 647.463 30.4333 647.463 26.4C647.463 22.3667 648.596 18.9833 650.863 16.25C653.163 13.4833 656.213 12.1 660.013 12.1C662.613 12.1 664.696 12.7 666.263 13.9C667.863 15.0667 668.663 16.9 668.663 19.4C668.663 21.8667 667.53 23.7333 665.263 25C663.03 26.2333 660.296 26.85 657.063 26.85C655.93 26.85 654.763 26.7833 653.563 26.65ZM653.613 22.7C654.613 22.9 655.663 23 656.763 23C659.163 23 661.18 22.55 662.813 21.65C663.013 20.85 663.113 20.2167 663.113 19.75C663.113 18.5833 662.696 17.7 661.863 17.1C661.03 16.5 659.88 16.2 658.413 16.2C656.98 16.2 655.68 16.6667 654.513 17.6C653.913 19.3333 653.613 21.0333 653.613 22.7ZM705.791 21.4L711.141 21C713.141 21 714.141 22.0167 714.141 24.05C714.141 25.2167 713.991 27.0333 713.691 29.5C713.391 31.9667 713.241 33.9667 713.241 35.5C712.407 35.6333 710.541 36.1333 707.641 37C704.774 37.8667 702.374 38.3 700.441 38.3C695.707 38.3 692.124 36.8333 689.691 33.9C687.291 30.9667 686.091 26.9667 686.091 21.9C686.091 18.3 686.741 15 688.041 12C689.374 9 691.341 6.56667 693.941 4.7C696.541 2.83333 699.407 1.9 702.541 1.9C705.707 1.9 708.341 2.63333 710.441 4.1C712.574 5.56667 713.641 7.55 713.641 10.05C713.641 11.45 713.224 12.6333 712.391 13.6C711.591 14.5333 710.557 15 709.291 15C708.024 15 707.141 14.85 706.641 14.55C706.741 13.95 706.791 13.35 706.791 12.75C706.791 10.9833 706.291 9.55 705.291 8.45C704.291 7.31667 702.874 6.75 701.041 6.75C699.207 6.75 697.474 7.36667 695.841 8.6C694.874 9.96666 694.124 11.8333 693.591 14.2C693.057 16.5667 692.791 18.8667 692.791 21.1C692.791 24.7 693.491 27.6667 694.891 30C696.291 32.3 698.507 33.45 701.541 33.45C703.774 33.45 705.857 32.8 707.791 31.5C707.924 30.2 707.991 28.3333 707.991 25.9C706.657 26.3 705.624 26.5 704.891 26.5C703.057 26.5 702.141 25.5333 702.141 23.6C702.141 22.7667 702.307 21.8833 702.641 20.95C703.541 21.25 704.591 21.4 705.791 21.4ZM723.729 26.65C723.729 29.05 724.112 30.95 724.879 32.35C725.646 33.7167 726.929 34.4 728.729 34.4C730.529 34.4 731.929 33.8 732.929 32.6C733.962 31.3667 734.479 29.8833 734.479 28.15C735.612 28.15 736.596 28.4333 737.429 29C738.262 29.5667 738.679 30.35 738.679 31.35C738.679 33.4167 737.579 35.15 735.379 36.55C733.179 37.9167 730.862 38.6 728.429 38.6C724.629 38.6 721.879 37.5833 720.179 35.55C718.479 33.4833 717.629 30.4333 717.629 26.4C717.629 22.3667 718.762 18.9833 721.029 16.25C723.329 13.4833 726.379 12.1 730.179 12.1C732.779 12.1 734.862 12.7 736.429 13.9C738.029 15.0667 738.829 16.9 738.829 19.4C738.829 21.8667 737.696 23.7333 735.429 25C733.196 26.2333 730.462 26.85 727.229 26.85C726.096 26.85 724.929 26.7833 723.729 26.65ZM723.779 22.7C724.779 22.9 725.829 23 726.929 23C729.329 23 731.346 22.55 732.979 21.65C733.179 20.85 733.279 20.2167 733.279 19.75C733.279 18.5833 732.862 17.7 732.029 17.1C731.196 16.5 730.046 16.2 728.579 16.2C727.146 16.2 725.846 16.6667 724.679 17.6C724.079 19.3333 723.779 21.0333 723.779 22.7ZM766.845 17.8L766.345 28.8C766.345 31.8333 766.812 34.8 767.745 37.7C766.812 38.1 765.745 38.3 764.545 38.3C761.712 38.3 760.295 36.7167 760.295 33.55C760.295 32.1167 760.479 29.7167 760.845 26.35C761.212 22.95 761.395 20.8167 761.395 19.95C761.395 18.2833 760.645 17.45 759.145 17.45C758.045 17.45 756.795 18.25 755.395 19.85C754.029 21.4167 752.845 23.1833 751.845 25.15C750.879 27.0833 750.312 28.6833 750.145 29.95C750.279 32.55 750.612 35.0333 751.145 37.4C750.079 37.8 748.962 38 747.795 38C746.662 38 745.729 37.7333 744.995 37.2C744.295 36.6333 743.945 35.8667 743.945 34.9C743.945 33.9 744.095 32.1333 744.395 29.6C744.695 27.0333 744.845 24.5 744.845 22C744.845 19.4667 744.462 16.5667 743.695 13.3C744.762 12.9 745.895 12.7 747.095 12.7C748.295 12.7 749.262 13.05 749.995 13.75C750.762 14.45 751.145 15.3167 751.145 16.35C751.145 17.3833 751.012 19.0333 750.745 21.3C752.012 18.9333 753.662 16.8667 755.695 15.1C757.729 13.3 759.762 12.4 761.795 12.4C765.162 12.4 766.845 14.2 766.845 17.8ZM777.342 26.65C777.342 29.05 777.726 30.95 778.492 32.35C779.259 33.7167 780.542 34.4 782.342 34.4C784.142 34.4 785.542 33.8 786.542 32.6C787.576 31.3667 788.092 29.8833 788.092 28.15C789.226 28.15 790.209 28.4333 791.042 29C791.876 29.5667 792.292 30.35 792.292 31.35C792.292 33.4167 791.192 35.15 788.992 36.55C786.792 37.9167 784.476 38.6 782.042 38.6C778.242 38.6 775.492 37.5833 773.792 35.55C772.092 33.4833 771.242 30.4333 771.242 26.4C771.242 22.3667 772.376 18.9833 774.642 16.25C776.942 13.4833 779.992 12.1 783.792 12.1C786.392 12.1 788.476 12.7 790.042 13.9C791.642 15.0667 792.442 16.9 792.442 19.4C792.442 21.8667 791.309 23.7333 789.042 25C786.809 26.2333 784.076 26.85 780.842 26.85C779.709 26.85 778.542 26.7833 777.342 26.65ZM777.392 22.7C778.392 22.9 779.442 23 780.542 23C782.942 23 784.959 22.55 786.592 21.65C786.792 20.85 786.892 20.2167 786.892 19.75C786.892 18.5833 786.476 17.7 785.642 17.1C784.809 16.5 783.659 16.2 782.192 16.2C780.759 16.2 779.459 16.6667 778.292 17.6C777.692 19.3333 777.392 21.0333 777.392 22.7ZM804.509 37.4C803.475 37.8 802.375 38 801.209 38C800.042 38 799.092 37.7333 798.359 37.2C797.659 36.6333 797.309 35.8667 797.309 34.9C797.309 33.9 797.459 32.1 797.759 29.5C798.059 26.9 798.209 24.3833 798.209 21.95C798.209 19.4833 797.825 16.6 797.059 13.3C798.125 12.9 799.175 12.7 800.209 12.7C801.242 12.7 802.125 13.05 802.859 13.75C803.625 14.45 804.009 15.3833 804.009 16.55C804.009 17.15 803.909 18.05 803.709 19.25C803.509 20.4167 803.392 21.3 803.359 21.9C804.659 18.9333 806.192 16.6167 807.959 14.95C809.759 13.25 811.542 12.4 813.309 12.4C814.542 12.4 815.525 12.8333 816.259 13.7C816.992 14.5667 817.359 15.6667 817.359 17C817.359 18.3 817.025 19.3667 816.359 20.2C815.692 21 814.859 21.4 813.859 21.4C812.892 21.4 812.109 21.3 811.509 21.1C811.609 20.7 811.659 20.3333 811.659 20C811.659 18.6333 811.175 17.95 810.209 17.95C808.742 17.95 807.359 19.4333 806.059 22.4C804.792 25.3333 803.942 28.0833 803.509 30.65C803.675 33.15 804.009 35.4 804.509 37.4ZM842.86 14.45C841.96 18.2833 841.51 22.1333 841.51 26C841.51 29.8333 841.943 33.6333 842.81 37.4C841.61 37.8 840.377 38 839.11 38C837.843 38 836.96 37.6333 836.46 36.9C835.96 36.1333 835.71 35.05 835.71 33.65C835.71 32.2167 835.927 30.2667 836.36 27.8C833.993 32.8667 831.71 36.0667 829.51 37.4C828.51 38 827.477 38.3 826.41 38.3C823.877 38.3 821.91 37.3667 820.51 35.5C819.11 33.6 818.41 31.25 818.41 28.45C818.41 24.1833 819.593 20.45 821.96 17.25C824.327 14.0167 827.393 12.4 831.16 12.4C834.96 12.4 838.86 13.0833 842.86 14.45ZM836.31 17.45C834.543 16.9167 833.043 16.65 831.81 16.65C829.31 16.65 827.443 17.2 826.21 18.3C825.077 21.1 824.51 23.95 824.51 26.85C824.51 28.3833 824.743 29.9333 825.21 31.5C825.71 33.0667 826.46 33.85 827.46 33.85C828.627 33.85 830.127 32.1333 831.96 28.7C833.793 25.2667 835.243 21.5167 836.31 17.45ZM849.206 5.35C850.273 4.81666 851.356 4.55 852.456 4.55C853.556 4.55 854.44 4.9 855.106 5.6C855.806 6.3 856.156 7.33333 856.156 8.7C856.156 10.0667 856.073 11.6167 855.906 13.35C858.406 13.35 860.79 13 863.056 12.3C863.456 12.9667 863.656 13.75 863.656 14.65C863.656 15.5167 863.256 16.2333 862.456 16.8C861.69 17.3333 860.906 17.6 860.106 17.6C859.306 17.6 858.406 17.5 857.406 17.3C856.406 17.1 855.756 16.9833 855.456 16.95C855.423 17.25 855.323 17.85 855.156 18.75C855.023 19.65 854.906 20.4333 854.806 21.1C854.54 22.9333 854.406 24.9 854.406 27C854.406 31.5667 855.89 33.85 858.856 33.85C859.956 33.85 861.223 33.4667 862.656 32.7C863.09 33.3333 863.306 34.15 863.306 35.15C863.306 36.15 862.756 36.9333 861.656 37.5C860.59 38.0333 859.306 38.3 857.806 38.3C851.94 38.3 849.006 34.9667 849.006 28.3C849.006 27.3333 849.14 25.5833 849.406 23.05C849.706 20.5167 849.856 18.4667 849.856 16.9C848.256 17 846.973 17.2833 846.006 17.75C845.606 17.15 845.406 16.4667 845.406 15.7C845.406 14.9 845.69 14.25 846.256 13.75C846.823 13.2167 847.523 12.95 848.356 12.95C849.19 12.95 849.74 12.9667 850.006 13C850.04 12.7333 850.056 12.3833 850.056 11.95C850.056 9.45 849.773 7.25 849.206 5.35ZM876.083 38.6C872.416 38.6 869.716 37.5333 867.983 35.4C866.249 33.2333 865.383 30.2333 865.383 26.4C865.383 22.5333 866.533 19.1833 868.833 16.35C871.133 13.5167 874.083 12.1 877.683 12.1C885.083 12.1 888.783 16.2667 888.783 24.6C888.783 28.5 887.583 31.8167 885.183 34.55C882.783 37.25 879.749 38.6 876.083 38.6ZM872.483 17.6C871.883 19.5333 871.583 21.4667 871.583 23.4C871.583 25.3333 871.649 26.8333 871.783 27.9C871.916 28.9667 872.166 30.0333 872.533 31.1C873.299 33.2667 874.799 34.35 877.033 34.35C879.299 34.35 880.783 33.75 881.483 32.55C882.216 31.35 882.583 29.5 882.583 27C882.583 19.9 880.899 16.35 877.533 16.35C875.599 16.35 873.916 16.7667 872.483 17.6ZM900.065 37.4C899.032 37.8 897.932 38 896.765 38C895.599 38 894.649 37.7333 893.915 37.2C893.215 36.6333 892.865 35.8667 892.865 34.9C892.865 33.9 893.015 32.1 893.315 29.5C893.615 26.9 893.765 24.3833 893.765 21.95C893.765 19.4833 893.382 16.6 892.615 13.3C893.682 12.9 894.732 12.7 895.765 12.7C896.799 12.7 897.682 13.05 898.415 13.75C899.182 14.45 899.565 15.3833 899.565 16.55C899.565 17.15 899.465 18.05 899.265 19.25C899.065 20.4167 898.949 21.3 898.915 21.9C900.215 18.9333 901.749 16.6167 903.515 14.95C905.315 13.25 907.099 12.4 908.865 12.4C910.099 12.4 911.082 12.8333 911.815 13.7C912.549 14.5667 912.915 15.6667 912.915 17C912.915 18.3 912.582 19.3667 911.915 20.2C911.249 21 910.415 21.4 909.415 21.4C908.449 21.4 907.665 21.3 907.065 21.1C907.165 20.7 907.215 20.3333 907.215 20C907.215 18.6333 906.732 17.95 905.765 17.95C904.299 17.95 902.915 19.4333 901.615 22.4C900.349 25.3333 899.499 28.0833 899.065 30.65C899.232 33.15 899.565 35.4 900.065 37.4Z" fill="black"/>
</svg>
